<?xml version="1.0" encoding="UTF-8"?>
<svg width="700pt" height="700pt" version="1.1" viewBox="0 0 700 700" xmlns="http://www.w3.org/2000/svg">
 <path d="m439.6 26.25h-280.35c-4.7266 0-8.75 3.9219-8.75 8.75v490c0 4.8281 4.0234 8.75 8.75 8.75h381.32c4.9023 0 8.75-3.9219 8.75-8.75v-397.13c0-2.4492-1.0508-4.7773-2.8008-6.4375l-100.97-92.875c-0.35156-0.41797-0.875-0.78516-1.4023-1.1016-1.2227-0.73438-2.7969-1.1719-4.375-1.207zm-8.75 17.5h-262.85v472.5h363.82v-371.19h-92.223c-4.7266 0-8.75-3.9219-8.75-8.75zm-210.7 427.79h259.7c4.7227 0 8.75-3.9219 8.75-8.75 0-4.832-4.0273-8.75-8.75-8.75h-259.7c-4.8984 0-8.75 3.918-8.75 8.75 0 4.8281 3.8516 8.75 8.75 8.75zm0-54.164h259.7c4.7227 0 8.75-3.9219 8.75-8.75s-4.0273-8.75-8.75-8.75h-259.7c-4.8984 0-8.75 3.9219-8.75 8.75s3.8516 8.75 8.75 8.75zm0-53.883h259.7c4.7227 0 8.75-3.918 8.75-8.75 0-4.8281-4.0273-8.75-8.75-8.75h-259.7c-4.8984 0-8.75 3.9219-8.75 8.75 0 4.832 3.8516 8.75 8.75 8.75zm0-53.883h259.7c4.7227 0 8.75-3.918 8.75-8.75 0-4.8281-4.0273-8.75-8.75-8.75h-259.7c-4.8984 0-8.75 3.9219-8.75 8.75 0 4.832 3.8516 8.75 8.75 8.75zm176.93-53.883h82.777c4.7227 0 8.75-3.918 8.75-8.75 0-4.8281-4.0273-8.75-8.75-8.75h-82.777c-4.8984 0-8.75 3.9219-8.75 8.75 0 4.832 3.8516 8.75 8.75 8.75zm-145.77-94.883c-23.625 10.938-39.902 34.859-39.902 62.613v23.52c0 4.832 3.8516 8.75 8.75 8.75h120.4c4.8984 0 8.75-3.918 8.75-8.75v-23.52c0-27.754-16.277-51.676-39.902-62.613 8.75-7.9648 14.352-19.461 14.352-32.27 0-23.941-19.426-43.383-43.398-43.383-23.977 0-43.402 19.441-43.402 43.383 0 12.809 5.6016 24.305 14.352 32.27zm80.5 62.613v14.77h-102.9v-14.77c0-28.438 22.926-51.484 51.453-51.484 28.348 0 51.449 23.047 51.449 51.484zm65.273-21.629h82.777c4.7227 0 8.75-3.9219 8.75-8.75 0-4.832-4.0273-8.75-8.75-8.75h-82.777c-4.8984 0-8.75 3.918-8.75 8.75 0 4.8281 3.8516 8.75 8.75 8.75zm-116.72-99.137c14.172 0 25.898 11.602 25.898 25.883 0 14.297-11.727 25.898-25.898 25.898-14.352 0-25.902-11.602-25.902-25.898 0-14.281 11.551-25.883 25.902-25.883zm168 24.867h78.922l-78.922-72.625z" fill-rule="evenodd"/>
</svg>
